# xmcd
#
# Track frame offsets:
#	150
#	12682
#	23872
#	38940
#	49807
#	68365
#	83627
#
# Disc length: 1249 seconds
#
# Revision: 2
# Processed by: cddbd v1.4b42PL1 Copyright (c) Steve Scherf et al.
# Submitted via: EZCDDA 4.3.2
#
DISCID=5004df07
DTITLE=Catrabbits - Mistä Löydät?
DYEAR=1900
DGENRE=
TTITLE0=Tyhjä risti
TTITLE1=Ota vastaan
TTITLE2=Elämän kelkassa
TTITLE3=Voittaja
TTITLE4=Rukous
TTITLE5=Mistä löydät?
TTITLE6=Ajattele itse! (Demo-versio)
EXTD=
EXTT0=
EXTT1=
EXTT2=
EXTT3=
EXTT4=
EXTT5=
EXTT6=
PLAYORDER=
